<svg xml:space="preserve" style="enable-background:new 0 0 927.3 252.3;" viewBox="0 0 927.3 252.3" y="0px" x="0px" xmlns:xlink="http://www.w3.org/1999/xlink" xmlns="http://www.w3.org/2000/svg" id="Layer_1" version="1.1">
<style type="text/css">
	.st0{fill:#3B2C25;}
	.st1{fill:#AD7252;}
</style>
<g>
	<g>
		<path d="M345.6,60.7h13.7v69.9h-13.7v-29h-26v29h-13.8V60.7h13.8v27.8h26V60.7z" class="st0"></path>
		<path d="M419.2,130.6l-4.4-12.6H386l-4.2,12.6h-14.9l24.5-69.9h17.1l24.7,69.9H419.2z M390.5,105.1h19.7l-10.1-28.6
			L390.5,105.1z" class="st0"></path>
		<path d="M481.4,60.7h13.8v69.9h-10.5l-30-42.8v42.8H441V60.7h10.5l30,42.6V60.7z" class="st0"></path>
		<path d="M537,60.7c9.6,0,17.6,3.4,24,10.1c6.4,6.7,9.6,15,9.6,24.9c0,9.9-3.2,18.1-9.6,24.9
			c-6.4,6.7-14.4,10.1-24,10.1h-27.8V60.7H537z M537,117.4c6.1,0,11-2,14.8-6c3.8-4,5.7-9.3,5.7-15.7c0-6.5-1.9-11.7-5.7-15.7
			c-3.8-4-8.7-6-14.8-6h-14v43.6H537z" class="st0"></path>
		<path d="M607.5,60.7c6.7,0,12.4,2.3,17,6.8c4.6,4.5,6.9,10.1,6.9,16.7c0,6.6-2.3,12.2-6.9,16.7
			c-4.6,4.5-10.3,6.8-17,6.8h-12.3v23h-13.8V60.7H607.5z M607.5,94.7c2.9,0,5.4-1,7.3-3c1.9-2,2.9-4.5,2.9-7.5c0-3.1-1-5.6-2.9-7.6
			s-4.4-3-7.3-3h-12.3v21.2H607.5z" class="st0"></path>
		<path d="M641.3,60.7h13.8v69.9h-13.8V60.7z" class="st0"></path>
		<path d="M702.3,132c-10.5,0-19.2-3.5-26.1-10.5c-6.9-7-10.3-15.6-10.3-25.9c0-10.3,3.4-19,10.3-25.9
			c6.9-7,15.5-10.4,26.1-10.4c6.3,0,12.2,1.5,17.5,4.4c5.4,3,9.5,7,12.5,12l-11.9,6.9c-1.7-3.1-4.2-5.6-7.4-7.3
			c-3.2-1.8-6.8-2.6-10.8-2.6c-6.8,0-12.3,2.1-16.4,6.4c-4.2,4.3-6.2,9.8-6.2,16.6c0,6.7,2.1,12.2,6.2,16.5
			c4.2,4.3,9.6,6.4,16.4,6.4c4,0,7.6-0.9,10.8-2.6c3.2-1.8,5.7-4.2,7.3-7.2l11.9,6.9c-3,5.1-7.2,9.1-12.5,12
			C714.5,130.5,708.7,132,702.3,132z" class="st0"></path>
		<path d="M796.5,130.6h-15.9l-25-32.8v32.8h-13.8V60.7h13.8v30.8l24-30.8h15.9l-25.9,34L796.5,130.6z" class="st0"></path>
		<path d="M818.1,117.4h29.5v13.2h-43.3V60.7H847v13.2h-29v14.9h26.5v13h-26.5V117.4z" class="st0"></path>
		<path d="M886,60.7c9.6,0,17.6,3.4,24,10.1c6.4,6.7,9.6,15,9.6,24.9c0,9.9-3.2,18.1-9.6,24.9
			c-6.4,6.7-14.4,10.1-24,10.1h-27.8V60.7H886z M886,117.4c6.1,0,11-2,14.8-6c3.8-4,5.7-9.3,5.7-15.7c0-6.5-1.9-11.7-5.7-15.7
			c-3.8-4-8.7-6-14.8-6h-14v43.6H886z" class="st0"></path>
	</g>
</g>
<g>
	<g>
		<path d="M336.4,162.3h-25.2v20h24.1v5.1h-24.1v24.1h-5.4v-54.3h30.7V162.3z" class="st1"></path>
		<path d="M408.2,207.1c-3.7,3.5-8.6,5.3-14.6,5.3c-6,0-10.9-1.8-14.6-5.3c-3.7-3.5-5.6-8.2-5.6-14.1v-35.9h5.4V193
			c0,4.3,1.3,7.8,3.9,10.3c2.6,2.5,6.2,3.8,10.9,3.8c4.7,0,8.3-1.3,10.9-3.8c2.6-2.5,3.9-6,3.9-10.3v-35.9h5.4V193
			C413.7,198.9,411.9,203.6,408.2,207.1z" class="st1"></path>
		<path d="M487.2,211.5l-12.7-21.7h-15.3v21.7h-5.4v-54.3h21.7c4.5,0,8.3,1.6,11.5,4.8c3.2,3.2,4.8,7,4.8,11.5
			c0,3.7-1.1,6.9-3.3,9.8c-2.2,2.9-5,4.8-8.4,5.8l13.3,22.4H487.2z M459.2,162.3v22.3h16.3c3,0,5.6-1.1,7.7-3.3
			c2.1-2.2,3.2-4.8,3.2-7.9c0-3.1-1.1-5.7-3.2-7.9c-2.1-2.2-4.7-3.3-7.7-3.3H459.2z" class="st1"></path>
		<path d="M564.4,157.2h5.4v54.3h-4.7L535,167.2v44.2h-5.4v-54.3h4.7l30.2,44.1V157.2z" class="st1"></path>
		<path d="M610.7,157.2h5.4v54.3h-5.4V157.2z" class="st1"></path>
		<path d="M691.1,157.2v5.1h-16.7v49.2H669v-49.2h-16.7v-5.1H691.1z" class="st1"></path>
		<path d="M761.3,207.1c-3.7,3.5-8.6,5.3-14.6,5.3c-6,0-10.9-1.8-14.6-5.3c-3.7-3.5-5.6-8.2-5.6-14.1v-35.9h5.4V193
			c0,4.3,1.3,7.8,3.9,10.3c2.6,2.5,6.2,3.8,10.9,3.8c4.7,0,8.3-1.3,10.9-3.8c2.6-2.5,3.9-6,3.9-10.3v-35.9h5.4V193
			C766.8,198.9,765,203.6,761.3,207.1z" class="st1"></path>
		<path d="M840.3,211.5l-12.7-21.7h-15.3v21.7h-5.4v-54.3h21.7c4.5,0,8.3,1.6,11.5,4.8c3.2,3.2,4.8,7,4.8,11.5
			c0,3.7-1.1,6.9-3.3,9.8c-2.2,2.9-5,4.8-8.4,5.8l13.3,22.4H840.3z M812.3,162.3v22.3h16.3c3,0,5.6-1.1,7.7-3.3
			c2.1-2.2,3.2-4.8,3.2-7.9c0-3.1-1.1-5.7-3.2-7.9c-2.1-2.2-4.7-3.3-7.7-3.3H812.3z" class="st1"></path>
		<path d="M888.1,206.4h26.4v5.1h-31.8v-54.3h31.4v5.1h-26v19.2h24.1v5.1h-24.1V206.4z" class="st1"></path>
	</g>
</g>
<path d="M130.5,5.9v194.5h-16.8v-57.6H51.5v57.6h-17v-128h17v54.3h62.2V6.7C54,13.6,7.6,64.4,7.6,125.9
	C7.6,192.3,61.4,246,127.7,246c6,0,11.9-0.4,17.7-1.3V69.4h73.7v16.1h-56.7V127h54.3V143h-54.3V241c49.4-14.9,85.4-60.7,85.4-115
	C247.8,60.5,195.6,7.4,130.5,5.9z" class="st1"></path>
</svg>
